<?xml version="1.0" encoding="utf-8"?>
<!-- Generator: Adobe Illustrator 21.0.2, SVG Export Plug-In . SVG Version: 6.00 Build 0)  -->
<svg version="1.1" id="Layer_1" xmlns="http://www.w3.org/2000/svg" xmlns:xlink="http://www.w3.org/1999/xlink" x="0px" y="0px"
	 viewBox="0 0 1068.1 345" style="enable-background:new 0 0 1068.1 345;" xml:space="preserve">
<symbol  id="Insider" viewBox="-515.7 -142 1031.3 284">
	<g>
		<path d="M-514.2-39.5h17.5c3.8,0,4.3,0.5,4.3,4.3v166.3c0,3.8-0.5,4.3-4.3,4.3h-16.7c-1,0-1.5,0.3-1.5,2.3s0.5,2.3,1.5,2.3h72.7
			c1,0,1.5-0.3,1.5-2.3s-0.5-2.3-1.5-2.3h-16.8c-3.8,0-4.3-0.5-4.3-4.3V-35.3c0-3.8,0.5-4.3,4.3-4.3h17.5c1,0,1.5-0.3,1.5-2.3
			s-0.5-2.3-1.5-2.3h-74.2c-1,0-1.5,0.3-1.5,2.3C-515.7-40-515.2-39.5-514.2-39.5z"/>
		<path d="M-427.7-39.5c20.5,1,23.8,8.5,23.8,43.3v127.3c0,3.8-0.5,4.3-4.3,4.3h-17.3c-1,0-1.5,0.3-1.5,2.3s0.5,2.3,1.5,2.3h52.3
			c2.3,0,3.5-1,5-3.3l82-131.3h1v86.8c0,34.8-3,42.3-28,43.3c-1,0-1.5,0.8-1.5,2.3c0,2,0.5,2.3,1.5,2.3h56.8c1,0,1.5-0.3,1.5-2.3
			c0-1.5-0.5-2.3-1.5-2.3c-20.5-1-23.8-8.5-23.8-43.3V-40.3c0-2-0.3-3.8-2.8-3.8h-7.5c-2.3,0-3.5,1.3-4.5,3l-103,165.8h-1V3.7
			c0-34.8,3-42.3,30.8-43.3c1,0,1.5-0.8,1.5-2.3c0-2-0.5-2.3-1.5-2.3h-59.5c-1,0-1.5,0.3-1.5,2.3C-429.2-40.3-428.7-39.5-427.7-39.5
			z"/>
		<path d="M-183.5,142c18,0,24.5-7.3,38-7.3c4.5,0,6.3,1.8,8.5,4.5c0.8,1,1.8,1.5,2.8,1.5c1.3,0,1.8-0.8,1.8-2.8v-53
			c0-0.8-1-1.5-2.3-1.5s-2.3,0.5-2.3,1.5c-3.8,32-18.8,52.5-46.8,52.5c-18.8,0-30.8-12-30.8-27c0-17.5,7.3-27.8,42-44.5
			c35.8-17.3,50.8-32.5,50.8-58.8c0-30.3-23-54.3-58.3-54.3c-21.8,0-30,9-42,9c-5.8,0-9.8-1.8-12.5-5.8c-0.8-1.3-1.8-2-2.8-2
			c-1.3,0-1.8,0.8-1.8,2.8v63.7c0,0.8,0.8,1.5,2.3,1.5c1.8,0,2.3-0.8,2.3-1.5c5.5-40,23.3-63,54-63c25,0,40.5,14,40.5,33.3
			s-10,30.5-47,48.3c-34.3,16.5-45.3,32.8-45.3,56.8C-232.2,120-212.2,142-183.5,142z"/>
		<path d="M-103.2-39.5h17.5c3.8,0,4.3,0.5,4.3,4.3v166.3c0,3.8-0.5,4.3-4.3,4.3h-16.8c-1,0-1.5,0.3-1.5,2.3s0.5,2.3,1.5,2.3h72.8
			c1,0,1.5-0.3,1.5-2.3s-0.5-2.3-1.5-2.3h-16.8c-3.8,0-4.3-0.5-4.3-4.3V-35.3c0-3.8,0.5-4.3,4.3-4.3H-29c1,0,1.5-0.3,1.5-2.3
			s-0.5-2.3-1.5-2.3h-74.3c-1,0-1.5,0.3-1.5,2.3C-104.7-40-104.2-39.5-103.2-39.5z"/>
		<path d="M-13-39.5H4.5c3.8,0,4.3,0.5,4.3,4.3v166.3c0,3.8-0.5,4.3-4.3,4.3h-16.8c-1,0-1.5,0.3-1.5,2.3s0.5,2.3,1.5,2.3h83.8
			c54.5,0,92-37.3,92-92c0-54.5-37.5-91.8-89.5-91.8h-87c-1,0-1.5,0.3-1.5,2.3S-14-39.5-13-39.5z M108.3,121.2
			c-8.3,8.3-20.8,14-36.8,14H43.8c-3.8,0-4.3-0.5-4.3-4.3V-35.3c0-3.8,0.5-4.3,4.3-4.3h30.3c14.5,0,25.8,5,34.3,13.5
			c12.8,12.8,20,33.5,20,73.8C128.3,88.2,121,108.5,108.3,121.2z"/>
		<path d="M183-39.5h17.5c3.8,0,4.3,0.5,4.3,4.3v166.3c0,3.8-0.5,4.3-4.3,4.3h-16.8c-1,0-1.5,0.3-1.5,2.3s0.5,2.3,1.5,2.3h136.5
			c3.5,0,4.3-1,4.3-4.5v-44c0-1-0.5-1.5-2.5-1.5c-1.3,0-1.8,0.5-2,1.8c-4.5,30.8-20,43.8-43.8,43.8h-36.5c-3.8,0-4.3-0.5-4.3-4.3
			V56.7h10.8c25.7,0,32.7,7,36,29.5c0.3,1.3,0.8,1.8,2,1.8c2,0,2.5-0.5,2.5-1.5v-64c0-1-0.5-1.5-2.5-1.5c-1.3,0-1.8,0.8-2,2
			c-3.3,22.5-10.3,29.3-36,29.3h-10.8v-87.5c0-3.8,0.5-4.3,4.3-4.3h33.5c31.5,0,45.3,16.8,51,55.3c0.3,1.3,1,1.8,2.3,1.8
			c2,0,2.3-0.5,2.3-1.5v-55.5c0-3.5-0.8-4.5-4.3-4.5H183c-1,0-1.5,0.3-1.5,2.3S182-39.5,183-39.5z"/>
		<path d="M437.5,54v-1c33.3-4,51.3-16,51.3-48v-29.8c0-10.3,4.3-15.3,12-15.3c3.8,0,8.8,2,12.3,4c1,0.5,3.3-2.3,2.3-3.3
			c-5.3-4.5-13.3-7.8-23.5-7.8c-20.5,0-33.8,10.8-33.8,30.3v37.6c0,20.8-16,30.3-35,30.3h-22.5v-86.3c0-3.8,0.5-4.3,4.3-4.3h15.5
			c1,0,1.5-0.3,1.5-2.3s-0.5-2.3-1.5-2.3h-72.3c-1,0-1.5,0.3-1.5,2.3s0.5,2.3,1.5,2.3h17.5c3.8,0,4.3,0.5,4.3,4.3V131
			c0,3.8-0.5,4.3-4.3,4.3h-16.8c-1,0-1.5,0.3-1.5,2.3s0.5,2.3,1.5,2.3h72.5c42,0,62.8-17.3,62.8-43C484,73.5,466,57.7,437.5,54z
			 M442,127c-5.3,5.3-11.3,8.3-22.5,8.3h-14.8c-3.8,0-4.3-0.5-4.3-4.3V55.5h17.3c12,0,17.8,2,24.3,8.5c5.5,5.5,10.3,18.3,10.3,32.8
			S447.5,121.5,442,127z"/>
	</g>
	<g>
		<path d="M-515.2-139.5h5.9c1.3,0,1.4,0.2,1.4,1.4v56c0,1.3-0.2,1.4-1.4,1.4h-5.6c-0.3,0-0.5,0.1-0.5,0.8c0,0.7,0.2,0.8,0.5,0.8
			h26.7c0.3,0,0.5-0.1,0.5-0.8c0-0.7-0.2-0.8-0.5-0.8h-7.8c-1.3,0-1.4-0.2-1.4-1.4v-56c0-1.3,0.2-1.4,1.4-1.4h9.8
			c12.1,0,15.8,5.6,17.9,19.1c0.1,0.4,0.3,0.6,0.8,0.6c0.3,0,0.8-0.2,0.8-0.6v-19.1c0-1.2-0.3-1.5-1.4-1.5H-515
			c-0.3,0-0.5,0.1-0.5,0.8C-515.7-139.6-515.6-139.5-515.2-139.5z"/>
		<path d="M-372.4-141h-23.7c-0.3,0-0.5,0.1-0.5,0.8c0,0.7,0.2,0.8,0.5,0.8h6.5c1.3,0,1.3,0.2,0.9,1.4l-6.6,18.9h-19.1l-1.7-5.1
			c-4.1-12.2-3.5-14.9,4.6-15.3c0.3,0,0.5-0.1,0.5-0.8c0-0.7-0.2-0.8-0.5-0.8h-17.3c-0.3,0-0.5,0.1-0.5,0.8c0,0.5,0.2,0.8,0.7,0.8
			c4.7,0.3,6.5,2.4,11,15.7l15,44.7c0.2,0.4,0.5,0.7,0.9,0.7h2.2c0.5,0,0.7-0.2,0.8-0.7l20.6-58.9c0.4-1.3,0.6-1.4,1.9-1.4h3.8
			c0.3,0,0.5-0.1,0.5-0.8C-371.9-140.9-372-141-372.4-141z M-413.9-117.7h18.2l-6.2,17.9c-0.9,2.8-1.9,5.9-2.6,8.8h-0.3
			L-413.9-117.7z"/>
		<path d="M-328.8-139.5h9.3c1.3,0,1.4,0.2,1.4,1.4v57.5h-4.3c-8.9,0-13.7-6.1-15.3-19.1c-0.1-0.3-0.5-0.5-0.8-0.5s-0.7,0.2-0.7,0.5
			v19.1c0,1.2,0.3,1.5,1.4,1.5h49.6c1.2,0,1.4-0.3,1.4-1.5v-19.1c0-0.4-0.4-0.5-0.8-0.5s-0.7,0.1-0.8,0.5
			c-1.6,13.1-6.1,19.1-15,19.1h-4.6v-57.5c0-1.3,0.2-1.4,1.4-1.4h9.4c0.3,0,0.5-0.1,0.5-0.8c0-0.7-0.2-0.8-0.5-0.8h-31.9
			c-0.3,0-0.5,0.1-0.5,0.8C-329.3-139.6-329.1-139.5-328.8-139.5z"/>
		<path d="M-248.1-139.5h5.9c1.3,0,1.4,0.2,1.4,1.4v56c0,1.3-0.2,1.4-1.4,1.4h-5.6c-0.3,0-0.5,0.1-0.5,0.8c0,0.7,0.2,0.8,0.5,0.8
			h24.5c0.3,0,0.5-0.1,0.5-0.8c0-0.7-0.2-0.8-0.5-0.8h-5.6c-1.3,0-1.4-0.2-1.4-1.4v-56c0-1.3,0.2-1.4,1.4-1.4h5.9
			c0.3,0,0.5-0.1,0.5-0.8c0-0.7-0.2-0.8-0.5-0.8h-25c-0.3,0-0.5,0.1-0.5,0.8C-248.6-139.7-248.5-139.5-248.1-139.5z"/>
		<path d="M-185.3-139.5c6.9,0.3,8,2.9,8,14.6V-82c0,1.3-0.2,1.4-1.4,1.4h-5.8c-0.3,0-0.5,0.1-0.5,0.8c0,0.7,0.2,0.8,0.5,0.8h17.6
			c0.8,0,1.2-0.3,1.7-1.1l27.6-44.2h0.3v29.2c0,11.7-1,14.2-9.4,14.6c-0.3,0-0.5,0.3-0.5,0.8c0,0.7,0.2,0.8,0.5,0.8h19.1
			c0.3,0,0.5-0.1,0.5-0.8c0-0.5-0.2-0.8-0.5-0.8c-6.9-0.3-8-2.9-8-14.6v-44.6c0-0.7-0.1-1.3-0.9-1.3h-2.5c-0.8,0-1.2,0.4-1.5,1
			l-34.7,55.9h-0.3v-40.8c0-11.7,1-14.2,10.4-14.6c0.3,0,0.5-0.3,0.5-0.8c0-0.7-0.2-0.8-0.5-0.8h-20.1c-0.3,0-0.5,0.1-0.5,0.8
			C-185.8-139.8-185.6-139.5-185.3-139.5z"/>
		<path d="M-24.2-141h-23.7c-0.3,0-0.5,0.1-0.5,0.8c0,0.7,0.2,0.8,0.5,0.8h6.5c1.3,0,1.3,0.2,0.9,1.4l-6.6,18.9h-19.1l-1.7-5.1
			c-4.1-12.2-3.5-14.9,4.6-15.3c0.3,0,0.5-0.1,0.5-0.8c0-0.7-0.2-0.8-0.5-0.8h-17.3c-0.3,0-0.5,0.1-0.5,0.8c0,0.5,0.2,0.8,0.7,0.8
			c4.7,0.3,6.5,2.4,11,15.7l15,44.7c0.2,0.4,0.5,0.7,0.9,0.7h2.2c0.5,0,0.7-0.2,0.8-0.7l20.6-58.9c0.4-1.3,0.6-1.4,1.9-1.4h3.8
			c0.3,0,0.5-0.1,0.5-0.8C-23.7-140.9-23.9-141-24.2-141z M-65.8-117.7h18.2l-6.2,17.9c-0.9,2.8-1.9,5.9-2.6,8.8h-0.3L-65.8-117.7z"
			/>
		<path d="M11.7-139.5c6.9,0.3,8,2.9,8,14.6V-82c0,1.3-0.2,1.4-1.4,1.4h-5.8c-0.3,0-0.5,0.1-0.5,0.8c0,0.7,0.2,0.8,0.5,0.8h17
			c0.8,0,1.4-0.3,1.7-1.1L44.9-120c1.3-3.6,2.2-6.7,2.5-8.4h0.3l16.5,48.3c0.3,0.8,0.7,1.1,1.8,1.1h16.4c0.3,0,0.5-0.1,0.5-0.8
			c0-0.7-0.2-0.8-0.5-0.8h-5.5c-1.3,0-1.4-0.2-1.4-1.4v-56c0-1.3,0.2-1.4,1.4-1.4h6.3c0.3,0,0.5-0.1,0.5-0.8c0-0.7-0.2-0.8-0.5-0.8
			h-26c-0.3,0-0.5,0.1-0.5,0.8c0,0.7,0.2,0.8,0.5,0.8h6.4c1.3,0,1.4,0.2,1.4,1.4v54.3h-0.4l-19.4-56.2c-0.2-0.7-0.5-1-1.3-1h-1.3
			c-0.8,0-1.2,0.3-1.4,1L21.7-83.5h-0.3v-41.4c0-11.7,1-14.2,9.5-14.6c0.3,0,0.5-0.3,0.5-0.8c0-0.7-0.2-0.8-0.5-0.8H11.7
			c-0.3,0-0.5,0.1-0.5,0.8C11.2-139.8,11.4-139.5,11.7-139.5z"/>
		<path d="M121.9-139.5h5.9c1.3,0,1.4,0.2,1.4,1.4v56c0,1.3-0.2,1.4-1.4,1.4h-5.6c-0.3,0-0.5,0.1-0.5,0.8c0,0.7,0.2,0.8,0.5,0.8h46
			c1.2,0,1.4-0.3,1.4-1.5v-14.8c0-0.3-0.2-0.5-0.8-0.5c-0.4,0-0.6,0.2-0.7,0.6c-1.5,10.4-6.7,14.7-14.7,14.7h-12.3
			c-1.3,0-1.4-0.2-1.4-1.4v-25h3.6c8.7,0,11,2.4,12.1,9.9c0.1,0.4,0.3,0.6,0.7,0.6c0.7,0,0.8-0.2,0.8-0.5v-21.6
			c0-0.3-0.2-0.5-0.8-0.5c-0.4,0-0.6,0.3-0.7,0.7c-1.1,7.6-3.5,9.9-12.1,9.9h-3.6V-138c0-1.3,0.2-1.4,1.4-1.4h11.3
			c10.6,0,15.3,5.6,17.2,18.6c0.1,0.4,0.3,0.6,0.8,0.6c0.7,0,0.8-0.2,0.8-0.5v-18.7c0-1.2-0.3-1.5-1.4-1.5h-47.9
			c-0.3,0-0.5,0.1-0.5,0.8C121.4-139.6,121.6-139.5,121.9-139.5z"/>
		<path d="M241.4-108v-0.3c11.2-1.3,17.3-5.4,17.3-16.2v-10c0-3.5,1.4-5.1,4-5.1c1.3,0,2.9,0.7,4.1,1.3c0.3,0.2,1.1-0.8,0.8-1.1
			c-1.8-1.5-4.5-2.6-7.9-2.6c-6.9,0-11.4,3.6-11.4,10.2v12.6c0,7-5.4,10.2-11.8,10.2h-7.6v-29.1c0-1.3,0.2-1.4,1.4-1.4h5.2
			c0.3,0,0.5-0.1,0.5-0.8c0-0.7-0.2-0.8-0.5-0.8h-24.4c-0.3,0-0.5,0.1-0.5,0.8c0,0.7,0.2,0.8,0.5,0.8h5.9c1.3,0,1.4,0.2,1.4,1.4v56
			c0,1.3-0.2,1.4-1.4,1.4h-5.6c-0.3,0-0.5,0.1-0.5,0.8c0,0.7,0.2,0.8,0.5,0.8h24.4c14.2,0,21.2-5.8,21.2-14.5
			C257.1-101.4,251.1-106.7,241.4-108z M243-83.4c-1.8,1.8-3.8,2.8-7.6,2.8h-5c-1.3,0-1.4-0.2-1.4-1.4v-25.5h5.8c4,0,6,0.7,8.2,2.9
			c1.9,1.9,3.5,6.2,3.5,11S244.8-85.2,243-83.4z"/>
		<path d="M305.2-139.5h5.9c1.3,0,1.4,0.2,1.4,1.4v56c0,1.3-0.2,1.4-1.4,1.4h-5.6c-0.3,0-0.5,0.1-0.5,0.8c0,0.7,0.2,0.8,0.5,0.8H330
			c0.3,0,0.5-0.1,0.5-0.8c0-0.7-0.2-0.8-0.5-0.8h-5.6c-1.3,0-1.4-0.2-1.4-1.4v-56c0-1.3,0.2-1.4,1.4-1.4h5.9c0.3,0,0.5-0.1,0.5-0.8
			c0-0.7-0.2-0.8-0.5-0.8h-25c-0.3,0-0.5,0.1-0.5,0.8C304.7-139.7,304.9-139.5,305.2-139.5z"/>
		<path d="M398.2-78.3c7.4,0,11.3-3.3,14.7-3.3c1.5,0,2.7,0.6,3.4,1.7c0.4,0.7,0.8,0.8,1.1,0.8c0.4,0,0.6-0.3,0.6-0.9v-18.2
			c0-0.3-0.3-0.5-0.8-0.5c-0.4,0-0.7,0.2-0.8,0.5c-1.9,12.5-6.8,18.4-18.2,18.4c-3.9,0-7.5-1.3-10.3-4.1c-3.6-3.6-5.5-8.8-5.5-26.2
			s1.9-22.6,5.5-26.2c2.8-2.8,6.4-4.1,10.3-4.1c10.1,0,17.2,7.9,19.1,21.2c0.1,0.3,0.3,0.5,0.8,0.5c0.3,0,0.8-0.2,0.8-0.5v-21.1
			c0-0.7-0.1-0.9-0.6-0.9s-0.7,0.2-1.1,0.8c-0.9,1.4-2.3,2.1-3.8,2.1c-4.3,0-7.4-3.7-15.2-3.7c-15.3,0-27.6,13.7-27.6,31.9
			C370.6-92,382.9-78.3,398.2-78.3z"/>
		<path d="M515-141h-23.7c-0.3,0-0.5,0.1-0.5,0.8c0,0.7,0.2,0.8,0.5,0.8h6.5c1.3,0,1.3,0.2,0.9,1.4l-6.6,18.9H473l-1.7-5.1
			c-4.1-12.2-3.5-14.9,4.6-15.3c0.3,0,0.5-0.1,0.5-0.8c0-0.7-0.2-0.8-0.5-0.8h-17.3c-0.3,0-0.5,0.1-0.5,0.8c0,0.5,0.2,0.8,0.7,0.8
			c4.7,0.3,6.5,2.4,11,15.7l15,44.7c0.2,0.4,0.5,0.7,0.9,0.7h2.2c0.5,0,0.7-0.2,0.8-0.7l20.6-58.9c0.4-1.3,0.6-1.4,1.9-1.4h3.8
			c0.3,0,0.5-0.1,0.5-0.8C515.5-140.9,515.4-141,515-141z M473.5-117.7h18.2l-6.2,17.9c-0.9,2.8-1.9,5.9-2.6,8.8h-0.3L473.5-117.7z"
			/>
	</g>
</symbol>
<use xlink:href="#Insider"  width="1031.3" height="284" id="XMLID_1_" x="-515.7" y="-142" transform="matrix(0.9997 0 0 -1.0008 532.465 172.7554)" style="overflow:visible;"/>
</svg>
